# Blender 4.2.0
# www.blender.org
mtllib movegizmo.mtl
o Cone.002
v 6.000000 0.000000 -1.000000
v 6.000000 -0.500000 -0.866025
v 6.000000 -0.866025 -0.500000
v 6.000000 -1.000000 0.000000
v 6.000000 -0.866025 0.500000
v 6.000000 -0.500000 0.866025
v 6.000000 0.000000 1.000000
v 6.000000 0.500000 0.866025
v 6.000000 0.866026 0.500000
v 6.000000 1.000000 0.000000
v 6.000000 0.866026 -0.500000
v 6.000000 0.500000 -0.866025
v 8.000000 0.000000 0.000000
v -0.100000 0.139627 0.100000
v -0.100000 6.000000 0.100000
v -0.100000 0.139627 -0.100000
v -0.100000 6.000000 -0.100000
v 0.100000 0.139627 0.100000
v 0.100000 6.000000 0.100000
v 0.100000 0.139627 -0.100000
v 0.100000 6.000000 -0.100000
v -0.000000 6.000000 -1.000000
v 0.500000 6.000000 -0.866025
v 0.866025 6.000000 -0.500000
v 1.000000 6.000000 0.000000
v 0.866025 6.000000 0.500000
v 0.500000 6.000000 0.866025
v -0.000000 6.000000 1.000000
v -0.500000 6.000000 0.866025
v -0.866026 6.000000 0.500000
v -1.000000 6.000000 0.000000
v -0.866026 6.000000 -0.500000
v -0.500000 6.000000 -0.866025
v -0.000000 8.000000 0.000000
v -0.000000 0.250000 -0.433013
v -0.000000 -0.250000 -0.433013
v 0.125000 0.433013 -0.216506
v 0.216506 0.250000 -0.375000
v 0.250000 0.000000 -0.433013
v 0.216506 -0.250000 -0.375000
v 0.125000 -0.433013 -0.216506
v 0.216506 0.433013 -0.125000
v 0.375000 0.250000 -0.216506
v 0.433012 0.000000 -0.250000
v 0.375000 -0.250000 -0.216506
v 0.216506 -0.433013 -0.125000
v 0.250000 0.433013 0.000000
v 0.433012 0.250000 0.000000
v 0.500000 0.000000 0.000000
v 0.433012 -0.250000 0.000000
v 0.250000 -0.433013 0.000000
v 0.216506 0.433013 0.125000
v 0.375000 0.250000 0.216506
v 0.433012 0.000000 0.250000
v 0.375000 -0.250000 0.216506
v 0.216506 -0.433013 0.125000
v 0.125000 0.433013 0.216506
v 0.216506 0.250000 0.375000
v 0.250000 0.000000 0.433013
v 0.216506 -0.250000 0.375000
v 0.125000 -0.433013 0.216506
v -0.000000 0.433013 0.250000
v -0.000000 0.250000 0.433013
v -0.000000 0.000000 0.500000
v -0.000000 -0.250000 0.433013
v -0.000000 -0.433013 0.250000
v -0.000000 0.500000 0.000000
v -0.125000 0.433013 0.216506
v -0.216507 0.250000 0.375000
v -0.250000 0.000000 0.433013
v -0.216507 -0.250000 0.375000
v -0.125000 -0.433013 0.216506
v -0.000000 -0.500000 0.000000
v -0.216507 0.433013 0.125000
v -0.375000 0.250000 0.216506
v -0.433013 0.000000 0.250000
v -0.375000 -0.250000 0.216506
v -0.216507 -0.433013 0.125000
v -0.250000 0.433013 0.000000
v -0.433013 0.250000 0.000000
v -0.500000 0.000000 0.000000
v -0.433013 -0.250000 0.000000
v -0.250000 -0.433013 0.000000
v -0.216507 0.433013 -0.125000
v -0.375000 0.250000 -0.216506
v -0.433013 0.000000 -0.250000
v -0.375000 -0.250000 -0.216506
v -0.216507 -0.433013 -0.125000
v -0.125000 0.433013 -0.216506
v -0.216507 0.250000 -0.375000
v -0.250000 0.000000 -0.433013
v -0.216507 -0.250000 -0.375000
v -0.125000 -0.433013 -0.216506
v -0.000000 0.433013 -0.250000
v -0.000000 0.000000 -0.500000
v -0.000000 -0.433013 -0.250000
v -0.100000 -0.100000 -6.000000
v -0.100000 -0.100000 -0.196427
v -0.100000 0.100000 -6.000000
v -0.100000 0.100000 -0.196427
v 0.100000 -0.100000 -6.000000
v 0.100000 -0.100000 -0.196427
v 0.100000 0.100000 -6.000000
v 0.100000 0.100000 -0.196427
v -0.000000 -1.000000 -6.000000
v 0.500000 -0.866025 -6.000000
v 0.866025 -0.500000 -6.000000
v 1.000000 0.000000 -6.000000
v 0.866025 0.500000 -6.000000
v 0.500000 0.866025 -6.000000
v -0.000000 1.000000 -6.000000
v -0.500000 0.866025 -6.000000
v -0.866026 0.500000 -6.000000
v -1.000000 0.000000 -6.000000
v -0.866026 -0.500000 -6.000000
v -0.500000 -0.866025 -6.000000
v -0.000000 0.000000 -8.000000
v 0.252750 0.100000 0.100000
v 6.000000 0.100000 0.100000
v 0.252750 0.100000 -0.100000
v 6.000000 0.100000 -0.100000
v 0.252750 -0.100000 0.100000
v 6.000000 -0.100000 0.100000
v 0.252750 -0.100000 -0.100000
v 6.000000 -0.100000 -0.100000
vn 0.4349 -0.2331 -0.8698
vn 0.4349 -0.6367 -0.6367
vn 0.4349 -0.8698 -0.2331
vn 0.4349 -0.8698 0.2331
vn 0.4349 -0.6367 0.6367
vn 0.4349 -0.2331 0.8698
vn 0.4349 0.2331 0.8698
vn 0.4349 0.6367 0.6367
vn 0.4349 0.8698 0.2331
vn 0.4349 0.8698 -0.2331
vn -1.0000 -0.0000 -0.0000
vn 0.4349 0.6367 -0.6367
vn 0.4349 0.2331 -0.8698
vn -0.0000 -0.0000 -1.0000
vn 1.0000 -0.0000 -0.0000
vn -0.0000 -0.0000 1.0000
vn -0.0000 -1.0000 -0.0000
vn -0.0000 1.0000 -0.0000
vn 0.2331 0.4349 -0.8698
vn 0.6367 0.4349 -0.6367
vn 0.8698 0.4349 -0.2331
vn 0.8698 0.4349 0.2331
vn 0.6367 0.4349 0.6367
vn 0.2331 0.4349 0.8698
vn -0.2331 0.4349 0.8698
vn -0.6367 0.4349 0.6367
vn -0.8698 0.4349 0.2331
vn -0.8698 0.4349 -0.2331
vn -0.6367 0.4349 -0.6367
vn -0.2331 0.4349 -0.8698
vn 0.1862 -0.6947 -0.6947
vn 0.2506 0.2506 -0.9351
vn 0.0692 0.9636 -0.2582
vn 0.0692 -0.9636 -0.2582
vn 0.2506 -0.2506 -0.9351
vn 0.1862 0.6947 -0.6947
vn 0.1890 0.9636 -0.1890
vn 0.1890 -0.9636 -0.1890
vn 0.6846 -0.2506 -0.6846
vn 0.5086 0.6947 -0.5086
vn 0.5086 -0.6947 -0.5086
vn 0.6846 0.2506 -0.6846
vn 0.2582 -0.9636 -0.0692
vn 0.9351 -0.2506 -0.2506
vn 0.6947 0.6947 -0.1862
vn 0.6947 -0.6947 -0.1862
vn 0.9351 0.2506 -0.2506
vn 0.2582 0.9636 -0.0692
vn 0.2582 -0.9636 0.0692
vn 0.9351 -0.2506 0.2506
vn 0.6947 0.6947 0.1862
vn 0.6947 -0.6947 0.1862
vn 0.9351 0.2506 0.2506
vn 0.2582 0.9636 0.0692
vn 0.1890 -0.9636 0.1890
vn 0.6846 -0.2506 0.6845
vn 0.5086 0.6947 0.5086
vn 0.5086 -0.6947 0.5086
vn 0.6846 0.2506 0.6845
vn 0.1890 0.9636 0.1890
vn 0.2506 -0.2506 0.9351
vn 0.1862 0.6947 0.6947
vn 0.1862 -0.6947 0.6947
vn 0.2506 0.2506 0.9351
vn 0.0692 0.9636 0.2582
vn 0.0692 -0.9636 0.2582
vn -0.1862 0.6947 0.6947
vn -0.1862 -0.6947 0.6947
vn -0.2506 0.2506 0.9351
vn -0.0692 0.9636 0.2582
vn -0.0692 -0.9636 0.2582
vn -0.2506 -0.2506 0.9351
vn -0.5086 -0.6947 0.5086
vn -0.6846 0.2506 0.6845
vn -0.1890 0.9636 0.1890
vn -0.1890 -0.9636 0.1890
vn -0.6846 -0.2506 0.6845
vn -0.5086 0.6947 0.5086
vn -0.6947 -0.6947 0.1862
vn -0.9351 0.2506 0.2506
vn -0.2582 0.9636 0.0692
vn -0.2582 -0.9636 0.0692
vn -0.9351 -0.2506 0.2506
vn -0.6947 0.6947 0.1862
vn -0.6947 -0.6947 -0.1862
vn -0.9351 0.2506 -0.2506
vn -0.2582 0.9636 -0.0692
vn -0.2582 -0.9636 -0.0692
vn -0.9351 -0.2506 -0.2506
vn -0.6947 0.6947 -0.1862
vn -0.5086 -0.6947 -0.5086
vn -0.6846 0.2506 -0.6846
vn -0.1890 0.9636 -0.1890
vn -0.1890 -0.9636 -0.1890
vn -0.6846 -0.2506 -0.6846
vn -0.5086 0.6947 -0.5086
vn -0.2506 0.2506 -0.9351
vn -0.0692 0.9636 -0.2582
vn -0.0692 -0.9636 -0.2582
vn -0.2506 -0.2506 -0.9351
vn -0.1862 0.6947 -0.6947
vn -0.1862 -0.6947 -0.6947
vn 0.2331 -0.8698 -0.4349
vn 0.6367 -0.6367 -0.4349
vn 0.8698 -0.2331 -0.4349
vn 0.8698 0.2331 -0.4349
vn 0.6367 0.6367 -0.4349
vn 0.2331 0.8698 -0.4349
vn -0.2331 0.8698 -0.4349
vn -0.6367 0.6367 -0.4349
vn -0.8698 0.2331 -0.4349
vn -0.8698 -0.2331 -0.4349
vn -0.6367 -0.6367 -0.4349
vn -0.2331 -0.8698 -0.4349
vt 0.809890 0.768627
vt 0.845416 0.616630
vt 0.845416 0.683567
vt 0.726817 0.885591
vt 0.855723 0.721080
vt 0.753779 0.875656
vt 0.788972 0.861411
vt 0.822965 0.846673
vt 0.779996 0.952142
vt 0.683848 0.826549
vt 0.803681 0.940860
vt 0.777676 0.778712
vt 0.777676 0.618480
vt 0.813284 0.769960
vt 0.797659 0.894960
vt 0.890957 0.743480
vt 0.834358 0.884305
vt 0.890998 0.884305
vt 0.918954 0.874603
vt 0.736549 0.843589
vt 0.809695 0.703152
vt 0.772543 0.852247
vt 0.809695 0.860175
vt 0.703167 0.680883
vt 0.736628 0.661448
vt 0.775265 0.661448
vt 0.808726 0.680883
vt 0.828045 0.714544
vt 0.828045 0.753413
vt 0.808726 0.787075
vt 0.775265 0.806510
vt 0.736628 0.806510
vt 0.703167 0.787075
vt 0.683848 0.753413
vt 0.683848 0.714544
vt 0.893539 0.747871
vt 0.773172 0.757849
vt 0.159234 0.270800
vt 0.159234 0.030589
vt 0.174207 0.030679
vt 0.174207 0.270890
vt 0.314247 0.030697
vt 0.314247 0.270636
vt 0.299284 0.270528
vt 0.299284 0.030589
vt 0.194224 0.179069
vt 0.153209 0.245180
vt 0.138245 0.245288
vt 0.179260 0.179176
vt 0.209219 0.050120
vt 0.209219 0.270800
vt 0.194246 0.270890
vt 0.194246 0.050210
vt 0.314201 0.556530
vt 0.314201 0.541528
vt 0.329203 0.541497
vt 0.329203 0.556499
vt 0.364243 0.556497
vt 0.349242 0.556532
vt 0.349242 0.541532
vt 0.364243 0.541497
vt 0.209782 0.293470
vt 0.215272 0.295770
vt 0.246500 0.282692
vt 0.274571 0.272714
vt 0.124218 0.159537
vt 0.124218 0.318162
vt 0.086621 0.166665
vt 0.086621 0.186196
vt 0.051035 0.194639
vt 0.294161 0.054027
vt 0.294161 0.219090
vt 0.266061 0.094550
vt 0.266061 0.184393
vt 0.294161 0.340183
vt 0.230437 0.198221
vt 0.196834 0.212897
vt 0.174256 0.224491
vt 0.285309 0.302406
vt 0.382636 0.175120
vt 0.318912 0.317083
vt 0.354536 0.330910
vt 0.234492 0.198146
vt 0.215098 0.164485
vt 0.215098 0.125616
vt 0.234492 0.091954
vt 0.063005 0.092051
vt 0.101794 0.092051
vt 0.135385 0.091954
vt 0.154779 0.125616
vt 0.154779 0.164485
vt 0.135385 0.198146
vt 0.101794 0.217581
vt 0.063005 0.217581
vt 0.229536 0.330910
vt 0.257637 0.175120
vt 0.257637 0.340183
vt 0.174256 0.206456
vt 0.174256 0.360223
vt 0.209782 0.197767
vt 0.692020 0.187513
vt 0.681437 0.197230
vt 0.673040 0.182654
vt 0.687172 0.179098
vt 0.847320 0.161110
vt 0.847031 0.180242
vt 0.830465 0.180611
vt 0.828191 0.161537
vt 0.700504 0.271939
vt 0.700261 0.252947
vt 0.709879 0.269405
vt 0.705591 0.174239
vt 0.846762 0.142832
vt 0.830196 0.143202
vt 0.845972 0.195100
vt 0.836408 0.195313
vt 0.716742 0.262526
vt 0.687172 0.169380
vt 0.797597 0.230910
vt 0.801591 0.249401
vt 0.786741 0.248236
vt 0.784736 0.229901
vt 0.717404 0.281937
vt 0.729291 0.270022
vt 0.673040 0.165823
vt 0.797328 0.268319
vt 0.784467 0.267310
vt 0.692020 0.160965
vt 0.767612 0.247809
vt 0.768170 0.229531
vt 0.778524 0.282012
vt 0.768960 0.281799
vt 0.767901 0.266941
vt 0.681437 0.151248
vt 0.719254 0.253145
vt 0.700418 0.156106
vt 0.749331 0.248236
vt 0.752338 0.229901
vt 0.759819 0.282012
vt 0.752069 0.267310
vt 0.695983 0.142832
vt 0.716742 0.243775
vt 0.710115 0.156106
vt 0.869783 0.230788
vt 0.873821 0.249310
vt 0.859063 0.248247
vt 0.857002 0.229868
vt 0.729291 0.237545
vt 0.709879 0.236928
vt 0.717404 0.225685
vt 0.712779 0.142832
vt 0.869559 0.268220
vt 0.856779 0.267300
vt 0.839961 0.247859
vt 0.840459 0.229531
vt 0.850761 0.281921
vt 0.841209 0.281727
vt 0.840235 0.266963
vt 0.727324 0.151248
vt 0.718513 0.160965
vt 0.700504 0.234438
vt 0.832044 0.281921
vt 0.824361 0.267300
vt 0.735722 0.165824
vt 0.723362 0.169380
vt 0.821630 0.248247
vt 0.691128 0.236972
vt 0.824584 0.229868
vt 0.735722 0.182654
vt 0.723362 0.179098
vt 0.788373 0.207668
vt 0.769463 0.203243
vt 0.770383 0.192292
vt 0.789436 0.195022
vt 0.684265 0.243851
vt 0.806895 0.203020
vt 0.807815 0.192068
vt 0.684927 0.225760
vt 0.673040 0.237675
vt 0.727324 0.197230
vt 0.718513 0.187513
vt 0.770719 0.176418
vt 0.789824 0.176692
vt 0.681753 0.253232
vt 0.808152 0.176194
vt 0.755762 0.184609
vt 0.755956 0.175444
vt 0.712779 0.205646
vt 0.710115 0.192372
vt 0.770383 0.159874
vt 0.789436 0.157589
vt 0.684265 0.262601
vt 0.807815 0.159651
vt 0.755762 0.165892
vt 0.695983 0.205646
vt 0.700418 0.192372
vt 0.769463 0.147094
vt 0.788373 0.142832
vt 0.691128 0.269449
vt 0.806895 0.146870
vt 0.673040 0.270152
vt 0.684927 0.282012
vt 0.865601 0.161537
vt 0.862863 0.180611
vt 0.862594 0.143202
vt 0.855113 0.195313
vt 0.431732 0.595042
vt 0.431732 0.895800
vt 0.338634 0.852921
vt 0.338634 0.552163
vt 0.198529 0.853684
vt 0.198529 0.634139
vt 0.213530 0.634105
vt 0.213530 0.853650
vt 0.103242 0.825258
vt 0.103242 0.589225
vt 0.118205 0.589332
vt 0.118205 0.825365
vt 0.128446 0.853703
vt 0.128446 0.616526
vt 0.143448 0.634136
vt 0.143448 0.853734
vt 0.489310 0.556569
vt 0.489310 0.541605
vt 0.504274 0.541497
vt 0.504274 0.556461
vt 0.434268 0.556470
vt 0.419295 0.556560
vt 0.419295 0.541586
vt 0.434268 0.541497
vt 0.341590 0.779847
vt 0.282951 0.638011
vt 0.376188 0.764215
vt 0.401988 0.751563
vt 0.383265 0.823661
vt 0.414515 0.693332
vt 0.347739 0.832351
vt 0.378989 0.904617
vt 0.414515 0.687473
vt 0.342272 0.915395
vt 0.314201 0.925373
vt 0.174256 0.680215
vt 0.246792 0.540949
vt 0.210868 0.690345
vt 0.246792 0.699293
vt 0.068581 0.720410
vt 0.092671 0.737724
vt 0.096536 0.730112
vt 0.057062 0.889204
vt 0.092671 0.897956
vt 0.194137 0.646642
vt 0.227598 0.627207
vt 0.266236 0.627207
vt 0.299697 0.646642
vt 0.319016 0.680303
vt 0.319016 0.719172
vt 0.299697 0.752834
vt 0.266236 0.772268
vt 0.227598 0.772268
vt 0.194137 0.752834
vt 0.174819 0.719172
vt 0.174819 0.680303
vt 0.314201 0.875888
vt 0.314201 0.710277
vt 0.338712 0.866537
vt 0.314201 0.792308
vt 0.372840 0.852113
vt 0.823413 0.625134
vt 0.823413 0.850902
vt 0.838413 0.850936
vt 0.838413 0.625169
vt 0.856675 0.863027
vt 0.856675 0.699260
vt 0.871639 0.699152
vt 0.871639 0.862920
vt 0.725988 0.625218
vt 0.725988 0.815776
vt 0.740990 0.815745
vt 0.740990 0.625187
vt 0.869740 0.782519
vt 0.686146 0.860667
vt 0.701119 0.860757
vt 0.884713 0.782608
vt 0.858240 0.797446
vt 0.803552 0.828044
vt 0.788579 0.827954
vt 0.853032 0.797356
vt 0.469271 0.556569
vt 0.454307 0.556461
vt 0.454307 0.541497
vt 0.469271 0.541605
s 0
usemtl Material.001
f 1/1/1 13/2/1 2/3/1
f 2/4/2 13/5/2 3/6/2
f 3/6/3 13/5/3 4/7/3
f 4/7/4 13/5/4 5/8/4
f 5/9/5 13/10/5 6/11/5
f 6/12/6 13/13/6 7/14/6
f 7/15/7 13/16/7 8/17/7
f 8/18/8 13/16/8 9/19/8
f 9/20/9 13/21/9 10/22/9
f 10/22/10 13/21/10 11/23/10
f 1/24/11 2/25/11 3/26/11 4/27/11 5/28/11 6/29/11 7/30/11 8/31/11 9/32/11 10/33/11 11/34/11 12/35/11
f 11/36/12 13/2/12 12/37/12
f 12/37/13 13/2/13 1/1/13
f 14/38/11 15/39/11 17/40/11 16/41/11
f 16/42/14 17/43/14 21/44/14 20/45/14
f 20/46/15 21/47/15 19/48/15 18/49/15
f 18/50/16 19/51/16 15/52/16 14/53/16
f 16/54/17 20/55/17 18/56/17 14/57/17
f 21/58/18 17/59/18 15/60/18 19/61/18
f 22/62/19 34/63/19 23/64/19
f 23/64/20 34/63/20 24/65/20
f 24/66/21 34/67/21 25/68/21
f 25/69/22 34/67/22 26/70/22
f 26/71/23 34/72/23 27/73/23
f 27/74/24 34/75/24 28/76/24
f 28/76/25 34/75/25 29/77/25
f 29/77/26 34/75/26 30/78/26
f 30/79/27 34/80/27 31/81/27
f 31/81/28 34/80/28 32/82/28
f 22/83/17 23/84/17 24/85/17 25/86/17 26/87/17 27/88/17 28/89/17 29/90/17 30/91/17 31/92/17 32/93/17 33/94/17
f 32/95/29 34/96/29 33/97/29
f 33/98/30 34/99/30 22/100/30
f 96/101/31 36/102/31 40/103/31 41/104/31
f 95/105/32 35/106/32 38/107/32 39/108/32
f 94/109/33 67/110/33 37/111/33
f 73/112/34 96/101/34 41/104/34
f 36/113/35 95/105/35 39/108/35 40/114/35
f 35/106/36 94/115/36 37/116/36 38/107/36
f 37/111/37 67/110/37 42/117/37
f 73/112/38 41/104/38 46/118/38
f 40/119/39 39/120/39 44/121/39 45/122/39
f 38/123/40 37/111/40 42/117/40 43/124/40
f 41/104/41 40/103/41 45/125/41 46/118/41
f 39/120/42 38/126/42 43/127/42 44/121/42
f 73/112/43 46/118/43 51/128/43
f 45/122/44 44/121/44 49/129/44 50/130/44
f 43/127/45 42/131/45 47/132/45 48/133/45
f 46/118/46 45/125/46 50/134/46 51/128/46
f 44/121/47 43/127/47 48/133/47 49/129/47
f 42/117/48 67/110/48 47/135/48
f 73/112/49 51/128/49 56/136/49
f 50/130/50 49/129/50 54/137/50 55/138/50
f 48/133/51 47/132/51 52/139/51 53/140/51
f 51/128/52 50/134/52 55/141/52 56/136/52
f 49/129/53 48/133/53 53/140/53 54/137/53
f 47/135/54 67/110/54 52/142/54
f 73/112/55 56/136/55 61/143/55
f 55/144/56 54/145/56 59/146/56 60/147/56
f 53/148/57 52/142/57 57/149/57 58/150/57
f 56/136/58 55/141/58 60/151/58 61/143/58
f 54/145/59 53/152/59 58/153/59 59/146/59
f 52/142/60 67/110/60 57/149/60
f 60/147/61 59/146/61 64/154/61 65/155/61
f 58/153/62 57/156/62 62/157/62 63/158/62
f 61/143/63 60/151/63 65/159/63 66/160/63
f 59/146/64 58/153/64 63/158/64 64/154/64
f 57/149/65 67/110/65 62/161/65
f 73/112/66 61/143/66 66/160/66
f 63/158/67 62/157/67 68/162/67 69/163/67
f 66/160/68 65/159/68 71/164/68 72/165/68
f 64/154/69 63/158/69 69/163/69 70/166/69
f 62/161/70 67/110/70 68/167/70
f 73/112/71 66/160/71 72/165/71
f 65/155/72 64/154/72 70/166/72 71/168/72
f 72/165/73 71/164/73 77/169/73 78/170/73
f 70/171/74 69/172/74 75/173/74 76/174/74
f 68/167/75 67/110/75 74/175/75
f 73/112/76 72/165/76 78/170/76
f 71/176/77 70/171/77 76/174/77 77/177/77
f 69/178/78 68/167/78 74/175/78 75/179/78
f 78/170/79 77/169/79 82/180/79 83/181/79
f 76/174/80 75/173/80 80/182/80 81/183/80
f 74/175/81 67/110/81 79/184/81
f 73/112/82 78/170/82 83/181/82
f 77/177/83 76/174/83 81/183/83 82/185/83
f 75/173/84 74/186/84 79/187/84 80/182/84
f 83/181/85 82/180/85 87/188/85 88/189/85
f 81/183/86 80/182/86 85/190/86 86/191/86
f 79/184/87 67/110/87 84/192/87
f 73/112/88 83/181/88 88/189/88
f 82/185/89 81/183/89 86/191/89 87/193/89
f 80/182/90 79/187/90 84/194/90 85/190/90
f 88/189/91 87/188/91 92/195/91 93/196/91
f 86/191/92 85/190/92 90/197/92 91/198/92
f 84/192/93 67/110/93 89/199/93
f 73/112/94 88/189/94 93/196/94
f 87/193/95 86/191/95 91/198/95 92/200/95
f 85/201/96 84/192/96 89/199/96 90/202/96
f 91/203/97 90/204/97 35/106/97 95/105/97
f 89/199/98 67/110/98 94/109/98
f 73/112/99 93/196/99 96/101/99
f 92/205/100 91/203/100 95/105/100 36/113/100
f 90/204/101 89/206/101 94/115/101 35/106/101
f 93/196/102 92/195/102 36/102/102 96/101/102
f 97/207/11 98/208/11 100/209/11 99/210/11
f 99/211/18 100/212/18 104/213/18 103/214/18
f 103/215/15 104/216/15 102/217/15 101/218/15
f 101/219/17 102/220/17 98/221/17 97/222/17
f 99/223/14 103/224/14 101/225/14 97/226/14
f 104/227/16 100/228/16 98/229/16 102/230/16
f 105/231/103 117/232/103 106/233/103
f 106/233/104 117/232/104 107/234/104
f 107/235/105 117/236/105 108/237/105
f 108/238/106 117/239/106 109/240/106
f 109/240/107 117/239/107 110/241/107
f 110/242/108 117/243/108 111/244/108
f 111/244/109 117/243/109 112/245/109
f 112/246/110 117/247/110 113/248/110
f 113/248/111 117/247/111 114/249/111
f 114/249/112 117/247/112 115/250/112
f 105/251/16 106/252/16 107/253/16 108/254/16 109/255/16 110/256/16 111/257/16 112/258/16 113/259/16 114/260/16 115/261/16 116/262/16
f 115/263/113 117/264/113 116/265/113
f 116/265/114 117/266/114 105/267/114
f 118/268/18 119/269/18 121/270/18 120/271/18
f 120/272/14 121/273/14 125/274/14 124/275/14
f 124/276/17 125/277/17 123/278/17 122/279/17
f 122/280/16 123/281/16 119/282/16 118/283/16
f 120/284/11 124/285/11 122/286/11 118/287/11
f 125/288/15 121/289/15 119/290/15 123/291/15
