# Blender 4.2.0
# www.blender.org
mtllib movegizmoplanes.mtl
o Plane.002
v 0.000000 3.000000 -1.000000
v -0.000000 1.000000 -1.000000
v 0.000000 3.000000 -3.000000
v -0.000000 1.000000 -3.000000
v 1.000000 0.000000 -1.000000
v 3.000000 -0.000000 -1.000000
v 1.000000 0.000000 -3.000000
v 3.000000 -0.000000 -3.000000
v 1.000000 1.000000 0.000000
v 3.000000 1.000000 0.000000
v 1.000000 3.000000 0.000000
v 3.000000 3.000000 0.000000
v 0.000000 3.000000 -1.000000
v -0.000000 1.000000 -1.000000
v 0.000000 3.000000 -3.000000
v -0.000000 1.000000 -3.000000
v 1.000000 0.000000 -1.000000
v 3.000000 -0.000000 -1.000000
v 1.000000 0.000000 -3.000000
v 3.000000 -0.000000 -3.000000
v 1.000000 1.000000 0.000000
v 3.000000 1.000000 0.000000
v 1.000000 3.000000 0.000000
v 3.000000 3.000000 0.000000
vn -1.0000 -0.0000 -0.0000
vn -0.0000 -1.0000 -0.0000
vn -0.0000 -0.0000 -1.0000
vn 1.0000 -0.0000 -0.0000
vn -0.0000 1.0000 -0.0000
vn -0.0000 -0.0000 1.0000
vt 0.685793 0.790675
vt 0.749351 0.867931
vt 0.783203 0.822976
vt 0.739797 0.725566
vt 0.288548 0.255345
vt 0.261204 0.246608
vt 0.211452 0.197780
vt 0.322780 0.231908
vt 0.352961 0.698721
vt 0.260203 0.708022
vt 0.244655 0.782689
vt 0.343236 0.821751
s 0
usemtl Material.003
f 1/1/1 3/2/1 4/3/1 2/4/1
f 5/5/2 7/6/2 8/7/2 6/8/2
f 9/9/3 11/10/3 12/11/3 10/12/3
usemtl Material.002
f 13/1/4 14/4/4 16/3/4 15/2/4
f 17/5/5 18/8/5 20/7/5 19/6/5
f 21/9/6 22/12/6 24/11/6 23/10/6
